<svg  xmlns="http://www.w3.org/2000/svg" xmlns:xlink="http://www.w3.org/1999/xlink" width="996" height="300" viewBox="0 0 1020 324"><path transform="translate(0 100)" d="M45.8,9.9Q43.1,9.7 43.1,7Q44.2,-4.4 44.3,-25.8Q44.2,-28 42.1,-28L23.1,-28.1Q20.6,-28.1 20.4,-25.3L20.7,-21.3Q20.5,-18.5 13.4,-18.5Q11.9,-18.5 11.9,-19.8L11.9,-20.1Q12.5,-24.8 12.9,-44.7Q12.8,-50.9 12.65,-52.75Q12.5,-54.6 12.5,-57.9Q12.5,-60 14.6,-60.1Q16.2,-60.2 20.9,-55.8L42.5,-55.6Q44.5,-55.6 44.8,-57L44.9,-59.7L44.8,-72.5Q44.8,-75.7 44.3,-78Q44.3,-80 45.7,-80Q51.6,-79.9 54.6,-78.1Q55.3,-77.6 55.3,-76.9Q55.3,-76 54,-74.8Q52.2,-72.8 52.2,-69.6Q51.9,-69.6 51.9,-58Q52.1,-55.6 53.8,-55.6L73.3,-55.8Q74.5,-56.1 75.5,-58.2Q76.5,-60.3 78.4,-60.3Q83.4,-59.5 88.1,-55.6Q88.7,-54.7 88.7,-53.9Q88.7,-52.5 86.65,-51.2Q84.6,-49.9 84.2,-47L85.8,-29Q86.3,-26.4 86.3,-24.5Q86.3,-23 86,-22Q84.7,-19 78,-19Q75.7,-19 75.7,-20.9Q76.1,-24.3 76.1,-25.8Q76.1,-27.9 74.2,-27.9L54.3,-28.1Q52.5,-28.1 52.4,-26.2L52.4,-22.6Q52.4,-10.1 53,2.9L53.1,6.7Q52.9,9.8 45.8,9.9ZM75,-30.4Q76.1,-30.4 76.2,-31.3L76.1,-50.3Q76.1,-52 74.4,-52.7Q73.9,-52.9 71.7,-52.9L54,-52.7Q52.2,-52.4 52.2,-50.1L52.2,-33.3Q52.3,-30.6 54.8,-30.6L75,-30.4ZM42,-30.8Q44.8,-30.8 44.8,-33.6L44.7,-50.1Q44.7,-52.5 43.1,-52.6L22.4,-52.9Q20.5,-52.9 20.5,-50.9L20.4,-32.8Q20.4,-30.8 22.7,-30.8L42,-30.8Z"></path><path transform="translate(100 100)" d="M47.3,-79.5Q54.5,-78.7 55.9,-75.8Q55.9,-73.7 54.4,-71.7Q53.5,-69.2 53.1,-66.1L53.1,-61.1Q52.9,-59.2 54.2,-59.2L77.4,-59.3Q82,-64.2 84.7,-66.2L85.4,-66.2Q89.6,-64.1 93.9,-57.9Q94.4,-54.6 91.6,-54.7Q88.1,-55.4 83.5,-55.4L70.6,-55.6Q69.2,-55.4 72.8,-54.1Q74.9,-53 74.7,-51.4Q74.7,-49.1 71.3,-46.4Q70,-44.3 69.1,-41.6Q63.3,-28.3 55.1,-17.9L55.1,-16.7Q66,-7.3 83.4,-2.7Q87.6,-1.7 94.9,-1.7Q96.7,-1.2 95.7,1Q94.9,2.4 88.3,5.2Q84.6,9.5 83.1,9.5L82.9,9.5Q73,7.6 58.9,-2.9Q53.8,-7.4 50.7,-11.2L49.6,-11.2Q48.9,-11.2 47.6,-10.7Q37.2,-2.1 15.2,5.8Q8.4,8.8 5.8,8.8Q2.9,8.4 4.8,5.4Q9.2,3.7 14.6,1.9Q31.6,-5.5 41.4,-15.4Q44.3,-18 44.3,-19.4L44.3,-20.4Q39.6,-29.9 35.7,-44.3Q32.2,-43.1 25.3,-29.8Q24.2,-28.7 22.7,-28.7L21.8,-28.7Q21.6,-28.7 19,-30.75Q16.4,-32.8 16.4,-36.4L24.7,-41.3Q32.2,-46.9 36.5,-52.7Q38.7,-52.2 38.7,-51Q38.1,-49.2 37.8,-45.1L39.6,-40.2Q44.4,-29.4 48.6,-24.6L50.4,-24.6Q57.9,-35.2 63.1,-50.9Q63.4,-53.8 64,-56.1L39,-56Q37.7,-56 25.3,-56Q19,-56 14.3,-56Q9.6,-56 6.5,-56Q5.3,-56.1 5.1,-57Q4.7,-59.2 5.8,-59.4Q9.4,-59.5 14.9,-59.2L43.7,-59.2Q45,-60.7 44.8,-64.5Q45,-68.3 44.6,-70.6Q44,-74.6 44,-78.7Q44.7,-79.8 47.3,-79.5Z"></path><path transform="translate(200 100)" d="M9.3,-77.2L11.3,-77.2Q11.4,-77.2 14.4,-74.3L19.2,-74.3Q21.2,-73.4 21.2,-72.8Q30.1,-73.2 32.5,-73.6L44.9,-72.8Q47.2,-73.2 49.9,-73.2L51.3,-72.5Q52.8,-72.5 59.1,-73.2L60.9,-72.8Q62.9,-73.2 64.4,-73.2Q65.6,-72.5 66.8,-72.5L71.5,-72.5Q78.6,-72.5 80.7,-76.3Q80.7,-77.2 81,-77.2Q81,-77.2 81,-76.6L82.1,-77.1Q87.4,-74.6 90.3,-72.5Q91.1,-72.5 91.9,-68.7Q89.4,-66.5 87.5,-65.4Q88.3,-64.2 88.3,-63.2Q88.3,-59.5 87.9,-52.3L88.3,-49L87.5,-41.7Q88.3,-40.3 88.3,-38.8L88.3,-38Q88.3,-36.7 87.9,-34.7Q87.9,-34.2 88.2,-34.2L87.9,-32.6L87.9,-24.5L88.6,-23.4Q89,-12.7 89,-7.4Q88.3,-5 88.3,-4.1L88.3,-2.9Q89.7,-2.7 89.7,-1.9Q89,0.4 89,1.4L89,2.4Q82.8,7 82.5,7L78.3,7L72.3,1.3L72.3,0.8L71.5,0.8Q69.6,0.8 67.4,1.4Q66.8,0.5 66.8,-0.5L66.8,-1.2Q66.8,-1.5 68.4,-2.8L76.7,-2.1Q78.4,-2.5 79.9,-4.1Q79.9,-4.5 79.6,-5.2L80.7,-11Q80.3,-13 80.3,-14.3Q80.3,-18.9 80.7,-22.7Q80.3,-25.3 80.3,-25.6Q80.7,-30.5 80.7,-34Q79.9,-40.8 79.9,-42.8Q79.9,-44.3 80.3,-49.3L79.9,-50.1Q80.3,-50.7 80.3,-51.5Q80.3,-53.3 79.9,-55.9L80.3,-58.5Q79.9,-60.4 79.9,-61.5L80.4,-61.5L79.9,-62.5L79.9,-66.8Q78,-69.6 76.2,-69.6L70.4,-69.2L65.3,-70Q62.7,-69.6 62.7,-69.3Q58.9,-69.6 56.9,-69.6L52.2,-69.6Q44,-69.6 28.9,-69.2Q28.2,-69.5 28.2,-70L23.4,-69.6L21.9,-69.6Q18.7,-69.6 18.7,-70.5Q16.2,-69.5 16.1,-68.7L16.1,-52.3Q16.1,-51 16.7,-47.3Q16.1,-47.3 16.1,-46.1Q16.1,-41.6 16.8,-36.2Q16.1,-35 16.1,-34Q16.1,-31.9 16.4,-31.5Q16.1,-29.5 16.1,-28.2L16.1,-22.4L16.4,-20.2Q16,-16 15.3,-15.4Q16.1,-13.7 17.5,-1.2Q17.1,3.9 16.8,4.3Q17.1,4.9 17.1,5.5Q17.1,5.5 15.5,7L11.7,7L11.7,6.3L10.2,6.3Q10.2,7.3 9,7.3L8.1,6.8Q8.8,2.2 8.8,0.3L8.5,-2.3Q9.2,-5.2 9.2,-9.2L9.2,-12.9L9.6,-15.1Q9.2,-15.7 9.2,-16.9Q9.9,-19.3 9.9,-20.2L9.9,-20.7Q8.8,-20.7 8.8,-21.3L8.8,-22.7Q8.8,-23 9.6,-25.6L8.8,-28.2Q8.9,-30.2 9.9,-32.2L9.2,-34.4Q9.6,-35.1 9.6,-35.5Q9.6,-36.1 8.8,-37.7Q9.6,-40.9 9.6,-46.4Q9.6,-46.8 8.8,-49.3L9.2,-51.5Q8.8,-53.4 8.8,-55.2L8.8,-56.6Q9.6,-58.6 9.9,-58.6L9.2,-64.6L9.2,-67.8L8.8,-67.8L8.8,-69L9.6,-70.1L9.6,-70.5Q8.5,-71.7 8.5,-76.6L9.3,-77.2ZM65.1,-62.6L65.5,-62.6Q67.7,-61.4 73.3,-59.8L73.7,-58.1L73.7,-57.7Q71.3,-54.3 70.4,-54.3L70.4,-52.3L64.9,-37.7L64.9,-35.8Q64.9,-34.1 70,-28.5L74,-20.2L74,-18.7L74.4,-14.4Q70.2,-11.6 69,-11.6Q67.1,-11.6 65.7,-15.1Q66.1,-15.8 66.1,-16.2Q65.3,-17.4 65.3,-18.3L65.3,-24.2Q62.8,-25.8 62.8,-29.8L61.5,-29.8Q60.8,-29.5 60.2,-29.5L60.2,-27.5Q55.5,-19.9 52.5,-16.2Q50.2,-13.5 50,-11.1Q39.4,-6.4 39.4,-4.9L39.2,-5L38.3,-5Q38.3,-4.2 35.6,-2.5Q34.1,-2.5 32.9,-4.5L32.9,-5.6Q34.7,-8.3 37.5,-8.3Q40.4,-11.1 42.4,-12.1Q42,-12.9 42,-13.1Q44.1,-13.2 45.6,-16Q46.9,-16 51.4,-24.3Q51.9,-24.3 54,-27.1Q54,-27.9 53.7,-28.6Q55.2,-31.5 57,-33.6L57,-34Q57,-35.4 55.5,-37L55.5,-40.1Q52.9,-40.1 51.5,-44.3Q45.7,-50.1 45.7,-51.5L45.7,-51.7Q46,-51.7 46,-52Q50.7,-51.8 50.7,-49.1Q52.6,-49.1 54.4,-46.4L57.4,-43.7L58.6,-43.7Q62.8,-48.2 62.8,-56.1Q63.6,-56.1 63.9,-59.6Q63.2,-60.7 63.2,-61.7L65.1,-62.6ZM35.8,-62.3L38.2,-62.3Q44.2,-60 45.6,-58.1L45.6,-57.8Q39.8,-52.8 39.8,-46.8Q39.8,-43.7 37.2,-40.2L37.2,-36.9Q46,-27.6 46,-22Q45.1,-19.6 40.4,-17.4L40.3,-17.4Q37.7,-19.3 37.6,-20.2Q38.4,-21.4 38.4,-22.4L37.6,-23.8L38,-25.6Q34.9,-29.1 34.3,-29.1L33.7,-29.1Q26.1,-16.1 25.4,-15.6Q23.8,-15.6 21.6,-10.8Q21.1,-10.5 20.9,-10.5Q19.7,-10.9 19,-12.1L19,-12.8Q22,-15.8 23.4,-18.6Q26.7,-20.6 26.7,-26Q30.3,-30 30.3,-36.2L30.3,-37.7Q22.3,-49.1 22,-49.1L22,-50.1Q22,-50.6 22.3,-50.6L23.4,-50.6Q25.6,-50.6 32.4,-41.9Q32.9,-45.8 34.4,-48.6L34,-50.8Q35.1,-57.6 35.8,-59.2L35.4,-61.4L35.4,-61.7Q35.5,-62.3 35.8,-62.3Z"></path><path transform="translate(300 100)" d="M13,-44.5L12.5,-44.5Q8.7,-44.5 7.2,-47.2Q6.3,-49.1 6.3,-50.7Q6.3,-54 9.9,-56.1Q15.8,-60 15.8,-64.2L15.5,-69Q16.2,-70.3 17.1,-70.3Q18,-70.3 19,-69.2Q20.4,-66.9 20.7,-65L22.9,-64.7L45.2,-65L45.3,-69.1L44.8,-79.7L45.8,-80.7Q54.9,-80.1 55,-77.8L55.2,-75.4Q53.5,-73.1 53.4,-69.4Q53.6,-67.3 53.6,-66.5Q53.6,-65.7 53.7,-64.9L77.6,-65.2L80.3,-68.5Q81.2,-70.5 82.8,-70.5Q83.5,-70.5 84.3,-70.1Q91,-66 93.5,-61.3L93.7,-59.5Q91.8,-57.7 86.2,-57.5Q83.7,-54.7 79.6,-50.4Q78.1,-49.7 77.3,-49.7Q76,-49.7 76,-51.2L76,-51.5Q79.6,-55.7 79.8,-59.1Q79.7,-60.9 78.3,-62.6L20.8,-61.8L20.4,-56Q20.2,-52.2 18,-48.6Q16.4,-45.8 13,-44.5ZM45.8,9.6Q43.2,9.6 42.9,7.1Q42.6,4 36.7,3.6L33.2,3.7Q32.8,3.7 31.8,2.1L31.7,1.1Q31.7,0.4 32.6,0.3Q33.4,0.3 34.1,0.6L38,0.6L39.7,0.7Q44.6,0.7 44.8,-2.6Q45.3,-9.9 45.3,-17.9L45.3,-22.5L44.5,-22.8L14.4,-22L8.8,-21.3Q5.7,-21.4 5.6,-24.2L5.5,-25.4L7.1,-26.1Q19.2,-25.4 27.1,-25.4Q35.4,-25.4 44.1,-25.7Q45,-25.8 45,-26.9L45,-36Q44.7,-37.6 44.7,-38.7Q44.7,-40.8 46,-40.8Q46.6,-40.8 48.2,-39.9Q48.9,-39.9 49.9,-39.2Q52,-41.1 53.5,-42.6Q55.4,-46 55.4,-47.4L55.4,-47.5Q39.7,-47.2 30.3,-46.9Q27.8,-46.4 27.1,-46.4Q25.3,-46.4 24.3,-47.9Q24.3,-49.4 25.6,-50.4Q27.5,-50.3 30,-50.3L52.2,-50.4Q54,-50.7 54.8,-50.7Q56.8,-51.6 59.4,-54.4L60.1,-54.5Q68.3,-52.2 68.7,-45.9Q67.7,-44.6 62.8,-44.4Q56.2,-39.7 52.4,-38Q53.8,-37.2 53.9,-35Q53.5,-34.9 52.4,-31.5L52.4,-25.5L56.3,-25.8Q72,-26.2 73.3,-26.4L74.2,-26.4Q76.7,-26.4 78.6,-26.9L84.5,-32.9L86.6,-33.3Q89,-32.2 93.5,-27.9Q96,-26.2 96,-24.1Q96,-22.4 94.4,-22.4L94.2,-22.4Q93.8,-22.2 92.5,-22.2Q89.6,-22.2 82.1,-23L65.6,-23.1Q55.6,-23.1 53,-22.9L52.6,-20.4Q52.7,-13.4 54,1Q54,7.8 48.1,9.2Q46.8,9.6 45.8,9.6Z"></path><path transform="translate(400 100)" d="M61.5,-80.1Q71.9,-78.9 71.9,-75.9L68.2,-68.5Q68.9,-64.6 68.9,-64Q68.2,-49.7 68.2,-45.4L70.6,-43.7L79.2,-43.7Q84.8,-50.4 85.7,-50.4L87,-50.4Q94.9,-45.9 94.9,-41.7Q94.9,-40.4 93.1,-40.4Q89.6,-40.4 69.7,-41.2Q68.9,-37.5 68.1,-37.5Q68.9,-29.8 68.9,-26.1L68.9,-0.1L69.6,7.3Q66.7,10.1 64.1,10.1L62.6,10.1Q61.9,10.1 60.1,6.6L60.8,1.4L60.8,-38.7Q60.8,-40.4 58.9,-40.4L47.8,-40.4Q46.3,-40.4 44.8,-41.3Q43.3,-40.4 41.8,-40.4L38.1,-40.4Q37,-40.4 37,-41.7L37,-43Q37.6,-43 39,-43.7Q39.5,-43.7 44.8,-43Q54.9,-43.7 60,-43.7Q60.3,-45.2 61.7,-45.2L60.8,-46.9L60.8,-71.4L60.1,-78.6Q59.8,-79.9 61.5,-80.1ZM16,-77.9L16.5,-77.9Q28.1,-75.2 28.1,-68.5L28.1,-64.7Q26.3,-61.2 22.5,-61.2Q18.6,-61.2 14,-76.6L16,-77.9ZM22.7,-54.9L23.9,-54.9Q29.5,-52 29.5,-50.6L29.5,-49.2Q26.6,-46.3 26.6,-38.7Q26.6,-37.8 27.3,-37.8L26.6,-34.3L26.6,-13.5Q27.1,-8.8 29.3,-8.8Q38.7,-12.9 40.6,-14.8L41.8,-14.8Q42.9,-14.6 42.9,-13.5Q42.9,-12.2 20.8,6.4L20.4,6.4Q18.4,5.5 16.2,-0.1Q20,-4.5 20,-20.2L20,-24.6Q20,-30.4 19.2,-35Q20,-38.6 20,-44.7L20,-46.9Q20,-48 17.5,-49.3L6.2,-49.3Q5.1,-49.3 5.1,-50.6Q5.3,-51.9 6.2,-51.9L18.2,-51.9L22.7,-54.9Z"></path><path transform="translate(500 100)" d="M26.9,-79.5Q33.3,-77.8 33.3,-76.7L33.3,-75.9Q33.3,-74.5 30.9,-70.7L30.9,-68.2Q30.9,-67.8 30.1,-63.8L30.1,-56.2Q31.7,-53.8 34.1,-53.8L46.5,-53.8L50.2,-54.2L54.2,-59.4L56.6,-59.4Q62.2,-55.7 62.2,-53.8Q61.6,-51 60.6,-51L55,-50.8L46.1,-51Q45.7,-51 45.7,-51.4L44.9,-51L34.1,-51Q30.5,-51 30.5,-49Q32.5,-44.2 32.5,-37.7L32.5,-34.1Q33.7,-34.1 34.1,-28.9L34.9,-28.5Q36.8,-28.5 37.7,-31.3Q44.5,-39.6 44.5,-45.8L45.7,-46.6L47.3,-46.6Q49.3,-44.3 54.2,-41.4L55,-40.2Q55,-39 48.1,-33.3Q48.1,-32.2 38.5,-21.7L38.5,-19.3Q40.8,-16.4 42.9,-11.3Q48.1,-6 49.3,-6Q49.4,-5.6 55,-2L56.6,-2Q60.2,-3.8 60.2,-10.1L61.8,-11.7L62.6,-11.7Q62.9,-11.7 63.8,-10.5L63,-3.2Q65.8,0.1 65.8,4.4L65.8,4.8Q65.1,6.4 63,6.4L62.2,6.4Q52.1,6.4 40.1,-4.8Q40.1,-5.7 36.1,-10.5Q33.8,-15.7 33.3,-15.7L31.7,-15.7Q27,-9.2 18,-4.8L12.4,-1.2L11.2,-1.2Q10.6,-1.2 10,-2.4L10,-3.2Q10.6,-4.7 20,-10.5Q29.2,-18.2 30.1,-20.9L30.1,-21.3Q28.9,-28.2 27.3,-32.9Q25.3,-44.5 24.9,-50.2Q24.1,-50.2 24.1,-51Q9.5,-50 6,-49.4Q5.2,-50.7 5.2,-51.8L5.2,-52.2L6.8,-53.8Q13.4,-53.4 16.8,-53.4L18.8,-53.4L22.9,-53Q22.9,-53.3 24.4,-54.6Q24.4,-55.2 24.1,-60.2L24.1,-65.4L22.1,-77.5Q22.1,-79.5 26.9,-79.5ZM89.1,-79.1Q91.8,-79.1 94.7,-75.5L94.7,-73.9Q93.1,-71.3 91.6,-66.2Q91.5,-63.7 91.1,-60.2L91.5,-46.6L91.5,-32.9L91.5,-24.5L92.3,-6.5Q92.3,-2.8 92.7,4Q88.5,9.6 83.4,9.6L83.4,9.2L82.6,9.6Q81.5,9.6 74.6,2.4L74.6,2Q74.6,1 76.2,0.8L79,1.2Q84.2,0.5 84.2,-3.6L84.2,-4.4Q84.2,-13.1 84.6,-22.5Q84.6,-24.6 84.2,-30.5Q84.6,-41.2 84.6,-47.4Q84.6,-56.6 83.8,-73.1L83.4,-77.9Q84.5,-78.7 89.1,-79.1ZM67,-74.3L68.2,-74.3Q73.2,-74.3 76.2,-71.1Q76.2,-68.8 73.8,-65.4Q73.8,-61.9 73.4,-49.4Q73,-42.9 73,-42.2Q73,-36.6 73,-35.3Q73.8,-28.9 73.4,-26.9Q73.8,-24.4 73.8,-21.3L73.8,-20.9Q73.8,-17.3 67.4,-17.3L67,-17.3Q66.5,-17.3 65,-19.3Q66.2,-25.5 67.4,-50.2L67,-66.6Q65.8,-68 65.8,-72.7Q66.4,-74.3 67,-74.3ZM43,-73.5Q50.3,-71.4 51.7,-67.8Q52.9,-65.8 52.5,-63.8Q51.2,-60.1 47.3,-59.8L46.9,-59.8Q44.5,-62.2 44.5,-63.8L44.2,-67.3Q43.4,-69.5 40.5,-71.2Q39.5,-71.9 40,-72.6Q40.4,-73.5 40.9,-73.5L43,-73.5Z"></path><path transform="translate(0 200)" d="M57.9,-70.4L58.8,-70.4Q59,-70.4 60.4,-69.8Q61.9,-70.1 63.4,-70.1L65,-70.1Q65.7,-70.1 67,-68.6L67,-67.6Q67,-65.5 69.3,-61.8Q71,-55.8 73.1,-55.8Q72.8,-53.9 72.8,-53.3L72.9,-52.5Q72.9,-52.1 70.5,-49.5Q70.5,-48.5 70.1,-48.5Q68,-49.8 67.6,-49.8Q65.5,-49.8 63.7,-55.5Q62.9,-57.1 60.1,-60Q56.9,-62.6 55.9,-62.8Q51.3,-65.6 47.3,-65.6Q47.3,-65.9 45.1,-65.9Q43.7,-65.2 42.4,-64.7Q41.5,-63.7 41.3,-62.6Q41.5,-62.3 41.6,-61Q41.6,-59.4 41.2,-53.3Q41.8,-51.7 41.8,-50.7L41.8,-46.1Q41.8,-45.8 41.3,-44.8Q41.5,-44 41.5,-43.4Q41.5,-43 41.2,-41.7Q41.2,-39.8 41.3,-37Q41.3,-36.5 41.2,-33.3Q41.3,-30.2 41.3,-27.7Q41.8,-26.3 41.8,-25.9Q41.8,-25.5 41.5,-24.2Q41.6,-23.6 41.6,-23.2Q41.2,-22.3 41,-21.1L41.2,-20.2Q41.2,-19.2 41,-16.3Q41.5,-15.4 41.5,-14Q41.5,-13.2 41,-11.4Q41.6,-10 42.2,-7.9Q43.8,-5.6 45.7,-5.6Q45.7,-5.2 46.9,-5L47.6,-5Q49.1,-5 51.2,-5.2Q51.4,-5.2 53.7,-2.6Q53.7,-0.6 52.1,-0.6Q51.1,-0.3 50.7,-0.3L50,-0.3Q49.4,-0.3 47.4,-0.7L46.3,-0.7Q45.9,-0.7 44.9,-0.4Q40.6,-0.6 38.7,-0.9Q37.9,-0.9 36.4,-0.7Q34.7,-0.9 33.9,-0.9Q32.4,-0.7 32.1,-0.7L29.9,-1Q28.5,-0.8 28.5,-0.6L26,-1Q25.7,-1 24.2,-0.7Q23.7,-1 23,-1L22.6,-1Q21.1,-0.7 20.9,-0.7Q19.8,-1.2 19.8,-2.5L19.8,-3.1Q19.8,-3.8 21.1,-5.2L21.5,-5.2Q22,-5.2 24.8,-4L25.1,-4Q25.1,-4.8 29.6,-6.5Q31.5,-8.9 31.5,-11.6Q31.5,-13.8 32.3,-15.7Q31.7,-19.7 31.7,-20.8L31.7,-24.8Q31.7,-28 31.4,-32.6Q31.8,-32.6 32.6,-35.3L32.6,-38.1Q33,-38.6 33,-39.1Q32.7,-43 32.1,-43.4L32.1,-44.3Q32.1,-45.4 32,-47.6L32.1,-47.6Q32.1,-47.8 32,-47.8Q32.1,-49.2 32.1,-50L32.1,-51.6Q32.1,-52.1 32.7,-55.1Q32.6,-57.3 32.6,-58.8L32.6,-60Q32.6,-60.3 32.7,-60.6Q32.7,-63.5 29.9,-65.2Q29.6,-65.2 25.3,-65.6Q24.5,-65.6 22.3,-64.6Q19,-64 15.4,-61.6Q13.7,-59.6 11.6,-58Q11.4,-57.3 10.4,-55.7Q10.4,-53.6 9.6,-52.7Q9.6,-52.3 8.9,-51.8Q8.9,-51.3 8.7,-51L8,-51.2Q7.2,-50.3 3.2,-49.7Q2.8,-50.2 1.7,-53.9Q1.9,-54.7 1.9,-55.1L1.7,-56.1Q3.8,-58.4 3.8,-60.4Q5,-61.5 6.2,-61.9L6.1,-63.7L6.1,-64.1Q8.1,-69.6 10.1,-69.6L10.8,-69.8L11.4,-69.6Q12.5,-69.9 13.6,-69.9Q14.1,-69.7 15,-69.5Q18.2,-69.6 22.1,-70.1L22.6,-70.1Q23.3,-69.6 24.1,-69.3L26,-69.6L31.2,-69.1Q32.4,-69.5 32.9,-69.8L35.8,-69.8Q37.9,-69.3 39.6,-69.3Q42,-69.5 42.2,-69.5L42.2,-69.3L43.3,-69.6Q45.2,-69.5 46.4,-69.5Q53.5,-69.8 54.7,-69.8L56.4,-69.8Q57.3,-69.8 57.9,-70.4Z"></path><path transform="translate(75 200)" d="M14.3,-71.4L14.4,-71.4Q16.5,-71.4 16.5,-70.5Q16.7,-70.6 17.3,-68Q17.6,-68 17.6,-67.6Q17.6,-67 17.5,-66Q17.7,-64.9 17.7,-64.2Q16.8,-64.2 16.7,-61.8Q17.2,-59.8 17.2,-59.7L17.2,-59.1Q16.6,-57.4 16.6,-57L16.7,-53.7Q16.7,-52.7 16.3,-49.7Q16.4,-48.9 17.3,-47.3Q17.3,-46.5 17,-44.8Q17.2,-43.6 17.2,-42.4Q16.5,-39.4 16.1,-36.3Q16.4,-35.7 16.6,-35.7L17.2,-35.7Q18.7,-38.6 21.9,-39.7Q22.8,-41.5 26.2,-41.5Q26.2,-41.7 29.3,-42.2Q32.7,-42.1 32.9,-42.1Q33.7,-42.3 34,-42.3Q34.1,-42 36,-41Q41.5,-37.4 42.9,-33.4Q43.5,-31.9 43.9,-31.7Q43.8,-31 43.8,-30.9Q44.1,-29.1 44.1,-28L44.2,-26.4Q43.6,-11.6 44,-6.9L44.9,-4.4Q45.4,-2.6 46.6,-2.6Q48.5,-2.6 49.3,-2.7Q50.3,-2.7 50.3,-1.7Q50.1,1.4 49.2,1.4L39.7,1.1Q38.2,1 33,0.5L32.8,0.5Q29.5,1.1 29.5,-0Q29.3,-1.4 30.4,-2.1L34.8,-2.4Q35.9,-5.8 35.9,-6.9Q36.3,-8.8 36.3,-9.7L36.1,-19.8L36.1,-20.1Q36.1,-21 36.7,-22.7Q36.6,-24.5 35.8,-26.8Q35.9,-28.9 35.9,-30.4Q34.9,-31.1 32.7,-34.5Q32.1,-35.2 30.6,-35.5Q29.5,-37 29.2,-37Q22.4,-36.4 22,-35.1Q22,-34.9 20.8,-33.4Q19.3,-33.5 18.6,-33.5L18.3,-33.5Q17.1,-33.5 16.8,-27.2L16.8,-23.9Q16.8,-22.7 16.3,-20.7Q16.3,-20.5 16.5,-19.8Q16.5,-19.3 16.2,-14.8Q16.3,-9.8 17.1,-8.8Q17.1,-8.5 16.7,-7L16.7,-5.8Q17.2,-5.3 18.3,-3.4L18.7,-3.4Q20.3,-3.9 21.1,-3.9Q21.7,-3.9 22.9,-2.5Q22.9,-1.4 22.5,0.4Q22.6,0.7 22.7,0.8L22.4,1Q21.9,0.6 19.2,-0Q19.2,-0.2 18.8,-0.1L17.9,-0.1Q14.9,0.4 11.9,0.6L5.2,0.4L4.2,0.6Q2.1,0.6 2.1,-0.7L2,-2.2Q2,-3.9 6.3,-4.2Q8.5,-5.8 8.5,-9.2Q8.4,-10.6 8.2,-15Q8.1,-17.9 9.4,-20.7L9.4,-21.1L9,-22.2Q9,-22.4 9.1,-24.2Q9.1,-25.2 8.9,-26.2Q9,-27.9 9,-30L8.9,-30.9Q8.9,-31.1 9.6,-33.6L9.6,-34.2Q8.8,-36.1 8.8,-36.7Q9.1,-38.8 9.1,-39.3L9,-42.3Q8.7,-43.3 8.7,-43.4L8.7,-45.4Q8.7,-46.1 9.4,-46.7Q8.3,-51.6 8.2,-52.5Q8.2,-54.2 9,-57.2Q7.4,-64.1 5.8,-64.1Q3.7,-64.5 2.8,-64.5L1.9,-64.5Q1.4,-64.5 1.1,-65.9Q1.1,-66.7 3.8,-67.8Q4.6,-68.3 7,-68.6Q10.8,-70.6 12.1,-70.6Q12.3,-70.6 14.3,-71.4Z"></path><path transform="translate(128 200)" d="M23,-44.9L23.8,-44.8L25.6,-44.8Q25.9,-44.8 27.5,-44.3Q29.9,-44.5 30.3,-44.5Q31.4,-42.7 34.2,-42.7Q37,-41.3 37,-39.7Q40.2,-36.5 41.2,-33.8Q41.4,-33.8 41.8,-31.5Q42.4,-30.5 43.3,-25.3L43.3,-24.5Q43.3,-23 39.9,-22.4L38.4,-22.9L32,-22.9Q30.2,-22.9 28.4,-22.7Q24.8,-23 24.5,-23Q23.7,-22.9 23.2,-22.9L20.5,-22.9Q19,-22.9 15.4,-23.2Q14.8,-22 14.8,-21.6L14.8,-19.2L16.3,-14.7L16.3,-14.6L16.2,-13.8Q16.8,-13.8 17.5,-11.7Q18.7,-10 20.7,-8.7Q20.7,-7.6 26,-6.4Q26,-6 27.4,-5.9L28.5,-5.9L29.3,-6.7L30.8,-6.7Q34.5,-7.6 36.3,-9.9Q36.6,-9.9 39.1,-12.8L39.4,-12.9Q39.5,-12.9 40.3,-12.8Q41.9,-13.1 42.7,-13.1Q43.9,-13.1 44.3,-9.5L44.3,-9.3Q40.9,-5 40.3,-5Q39.2,-4.8 36,-1.6L35.2,-1.7L31.2,0.3Q31.2,0.5 31.1,0.5L30.8,0.5Q28.6,0.2 28.4,0.2L27.6,0.2Q27,0.2 26.5,0.8Q21.5,0.5 17.7,-0.6Q16.9,-0.6 15.4,-1.7Q12.1,-3.4 11.4,-4L6.8,-9.3Q6.8,-10.4 5,-14.4Q4.3,-15.1 4.3,-16.2Q5.5,-17.7 5.5,-18.7L5.5,-19.8Q4.9,-20.5 4.9,-20.7Q4.9,-24.3 6.1,-27.1Q5.9,-27.9 5.9,-28.3Q6.2,-28.4 7.2,-31.4Q10.7,-37.8 11.1,-38.2Q15,-42 17.2,-42.4Q19.3,-43.5 19.8,-44L20.9,-44Q23,-44.5 23,-44.9ZM26.2,-39.3L23.8,-39.3Q23.5,-38.9 21.4,-37.9Q19.4,-36.9 18.9,-36.3Q18.9,-36.1 16.3,-33.5Q16.3,-33 15.7,-31.7L15.6,-29.3L16.9,-28.1Q20.1,-28.4 20.7,-28.4Q21.9,-28.4 24.4,-28.3Q28.9,-28.6 31.4,-28.6Q31.4,-28.9 33.6,-30.8Q33.6,-31.3 32.7,-33.3Q32.1,-34.8 32,-36Q28.1,-39.3 27.6,-39.3L27.6,-39.4L26.2,-39.3Z"></path><path transform="translate(177 200)" d=""></path><path transform="translate(228 200)" d="M32.7,-69.5Q34,-69.1 34.4,-69.1L36.4,-69.2Q39.2,-68.5 39.5,-68.5Q39.7,-68.5 43,-68.7Q43,-68 47.1,-67.1L48.2,-67.1Q48.6,-67.1 48.8,-67.2Q49.1,-67.2 51.8,-64.7Q53.7,-64.7 54.9,-62Q57.2,-59.7 58.5,-56Q59.1,-56 59.2,-51.1L59.2,-50.4Q59.2,-49.7 58.5,-48.7Q58.5,-48.3 58.9,-46.3L58.9,-46Q58,-44.6 56.9,-42.3Q56.7,-42.3 56.5,-41Q52.4,-37 50.4,-35.7Q50.4,-34.3 47.7,-34.3Q46.5,-33.7 46.1,-33.3Q45.3,-33.7 44.8,-33.7Q44.2,-33.2 43.1,-32.7Q42.9,-32.2 42.7,-32.2L42.5,-32.2Q40.9,-32.2 36.6,-31.2Q36.4,-31.2 35.4,-31.3Q31.3,-31.3 27.6,-31Q24.1,-31.2 21.6,-31.9Q21.3,-31.7 21.2,-31.7L21.2,-31.6Q21.9,-29.7 21.9,-28.7L21.9,-28Q21.4,-26.7 21.4,-25.9Q21.4,-25.7 22,-25.3Q21.9,-22.5 21.9,-21L21.9,-16.5L22.4,-15.5L22,-8.4L22,-7.9Q22,-6.5 24.3,-5.9Q26.8,-4.5 28.7,-4.5Q29.7,-4.8 29.9,-4.8L30.9,-4.8Q31,-4.8 32.1,-3.5L32,-2.6Q33.1,-2.3 33.1,-1.9Q33.1,-1.6 31.7,-0.2Q26.1,-0.5 24.9,-1.1Q19.9,-0.7 19.9,-0.4Q18,-0.5 17,-0.5L10.9,-0.5L10,-0.4L8.5,-0.7Q8.3,-0.5 6.5,-0.4Q3.1,-0.5 3.1,-1.5Q3.2,-2.1 3.3,-2.1L3.2,-2.4L3.2,-2.8Q3.2,-3.9 9.5,-4.8Q9.5,-5.1 11,-5.5Q12.1,-7.1 12.6,-10.3L12.3,-15.9Q12.6,-16.4 12.6,-17L12.6,-18.8Q12.6,-19.2 12.7,-19.2Q12.7,-19.3 12.6,-19.6L12.3,-30.7Q12.5,-32.7 12.5,-35.7Q12.5,-35.9 12.6,-35.9L12.5,-36.6L12.5,-40.1Q12.5,-40.5 12.3,-40.7Q12.5,-41 12.5,-41.3L12.5,-44Q12.5,-44.3 12.6,-44.6Q12,-47.4 12,-48.3L12,-50.8L12.2,-51.7Q12.1,-52 11.9,-54.5Q12,-55.9 12,-57.5L12,-58Q10.9,-60.4 10.9,-61.7Q11,-61.9 11,-62.1Q10.3,-62.4 9.3,-63.7Q6,-63.9 6,-64.5Q3.2,-64.4 2.3,-64.4L1.3,-65.7L1.3,-67.1Q1.3,-67.3 2.2,-67.9L2.6,-67.9Q3.1,-67.9 3.8,-67.4L4.3,-67.4Q8,-68.4 8.9,-68.4L9.6,-68.4Q10,-68.4 10,-68.2L10.8,-68.4L12.6,-68.4Q14,-68.4 16,-68.5Q16.3,-68.4 16.6,-68.4Q18.2,-68.8 21.4,-68.8L22.4,-68.8Q23.5,-69.1 23.6,-69.1Q23.8,-69.1 25.6,-68.4Q27.1,-69.5 32.7,-69.5ZM24,-64L23,-64.1L22.7,-63.7Q22.9,-62.9 22.9,-62.5Q22,-62.5 21.9,-58.4Q21.7,-58.4 21.6,-58Q21.7,-53.4 21.9,-52.4Q21.6,-51.7 21.6,-51.4Q21.6,-51.1 21.9,-49.6Q21.6,-46.9 21.6,-45.7Q21.7,-43.9 21.7,-43.7L21.3,-40.4Q21.3,-38.1 22.3,-35.6L22.2,-34.7L22.6,-34.4L22.9,-34.4Q24,-35 24.6,-35.7L25.2,-35.7L26.6,-35.3Q28.4,-35.3 31,-35.2Q32.7,-36.3 34.6,-36.3Q37.7,-37.3 38.8,-37.9Q41.6,-37.9 42.8,-38.9Q45.7,-41.9 46.5,-42Q46.5,-42.3 47.1,-42.3L47,-44L47,-44.4Q48.5,-45.8 48.5,-47.4Q49,-50.4 49,-51.1L49,-52.3Q49,-52.6 48.8,-52.8Q48.8,-53.1 50,-54L50,-54.5Q48.2,-55.1 48.2,-56.7Q46.2,-60.3 43,-63.1Q42.8,-63.1 41.7,-65.2L41.3,-65.5L41.1,-65.5L37,-64.8Q33.8,-65.2 33,-65.8L32.3,-65.4L30.4,-65.4Q27.7,-65.8 27.4,-65.8Q24.2,-64.2 24.2,-64L24,-64Z"></path><path transform="translate(291 200)" d="M31.2,-46.8L32,-46.6L32.4,-46.6Q34.2,-46.6 36.4,-46Q36.7,-46.2 37,-46.2Q37.1,-45.6 39.6,-43.3Q39.3,-42.4 39.3,-42L39.3,-40.5Q39.3,-40.3 39.6,-38.1Q39.4,-36.8 36.2,-35.4L36.1,-35.4Q35.4,-35.4 34.6,-35.5Q34,-35.4 33.6,-35.4Q33.3,-35.4 29.7,-37.8L28.3,-37.9Q24.1,-36.9 24.1,-35.9Q24.1,-35.7 22.1,-33.1Q21.3,-31.7 21.3,-31.3L21.3,-30.7Q21.7,-27.6 21.55,-23.3Q21.4,-19 21.7,-18.6Q21.7,-17.2 21.6,-16.8Q21.7,-15.6 21.7,-15.4L21.6,-13.6Q21.6,-13.5 22.3,-12.6L22.3,-10Q22.9,-9.5 23,-8Q24,-7.3 25.9,-6.8L26.3,-6.8Q26.7,-6.8 26.9,-6.9Q27.2,-6.8 27.5,-6.8Q30,-6.7 30.3,-6.7L31.3,-5.5L31.3,-2.3Q31.3,-1.8 29.4,-1.6Q26.7,-2.3 25.6,-2.3L24.8,-2.3Q23.2,-1.5 21.8,-1.5L21,-1.5L20.1,-1.7Q19.8,-1.5 19.3,-1.5Q18.9,-1.5 18.9,-1.7L18.1,-1.5Q16.8,-1.5 15.1,-1.7Q12.4,-0.8 8.3,-1Q6.4,-1.8 6.4,-2.2Q5.3,-2.8 5.3,-3.5L5.5,-4.3Q5.3,-4.5 5.3,-4.9L8.3,-6.5Q8.4,-6.7 11.7,-8Q13.1,-9.2 13.1,-10.5L13.4,-10.8Q13.2,-13 13.2,-14.1L13.2,-14.7Q13.2,-17.3 14.3,-24.9Q13.4,-25.1 13.4,-25.9Q13.4,-26.2 12.9,-27.8Q12.9,-28.9 12.8,-32.2Q13.2,-32.9 13.2,-33.6L13.2,-34.2L9.9,-36.3L7.6,-36.3Q6.8,-36.3 6.1,-36.2Q4,-36.2 2.3,-38.1L2.3,-39.8Q4.9,-42.4 4.9,-42.6Q7.2,-42.1 7.9,-42.1Q8.8,-42.7 12,-43.8L12.3,-43.8L13.8,-43.6Q13.8,-44.7 18,-44.7Q18,-44.8 18.7,-44.8Q19.3,-44.8 20.4,-43.5Q20.4,-42.1 19.6,-38.7Q19.6,-37.5 20.8,-37.5Q21.2,-37.5 21.7,-39Q25.5,-43.2 26.9,-43.8Q27.3,-44.8 30.8,-46Q30.8,-46.3 31.2,-46.8Z"></path><path transform="translate(333 200)" d="M23.8,-44.7Q28.1,-44.6 28.9,-44.3Q29.1,-44.5 29.4,-44.5L29.7,-44L30.7,-44.2Q32.3,-44.2 32.6,-42.5L33.9,-42.5Q34.6,-42.5 36.8,-40Q37.8,-39.2 39.5,-38.7Q42.5,-35.9 44.2,-30.8Q44.7,-30.8 44.9,-29.4Q45.9,-28.4 45.9,-28.1Q45.5,-26 45.5,-24.6Q45.9,-23.9 45.9,-23.2L45.9,-22.2Q45.3,-19.6 44.8,-19.6L44.8,-18.2Q44.8,-17.4 44.7,-15.9Q44.8,-15.7 44.8,-15.4Q44.6,-15.4 42.2,-12Q41.3,-11.7 41,-11.1Q41,-10.9 41.2,-10.9L41,-10.2L41.2,-9.2Q40.6,-9.2 38.5,-6.9Q37.7,-6.9 34.2,-3.7Q32.8,-3.2 32.1,-2.5Q30.3,-2.8 30,-2.8Q30,-2.5 27.9,-1.1Q27.9,-0.3 25.8,-0.3Q20,-1.4 18.7,-1.4Q18.7,-1.9 14.8,-2.5L14.5,-2.5L13.8,-2.4Q13.8,-3 11.5,-5.3Q10.1,-5.3 8.8,-8.3Q7,-9.9 6,-11.9Q5.3,-12.3 5.3,-12.5L5.3,-13.3L5.4,-14.3Q4.7,-14.3 4.1,-17.2Q3.9,-17.2 3.9,-17.5L3.9,-17.6Q3.3,-24.8 3.3,-26.1Q4.3,-30.1 5.1,-30.8Q4.8,-30.8 4.7,-31.7Q5.3,-31.8 6.8,-35.2Q9.1,-38.5 10.6,-39.7Q10.8,-39.7 12.1,-41.7Q13.1,-42.1 14.9,-42.4Q14.9,-43 16.7,-43.2Q16.7,-43.6 18.1,-43.8Q18.1,-44 18.7,-44.3L20.1,-44.3Q21.4,-44.3 23.8,-44.7ZM15.2,-37.5L15.2,-36.6Q14.3,-36.1 13.4,-33.3Q13.2,-30.6 12.5,-27.5Q12.2,-27.5 12.2,-27.3L12.2,-26.8Q12.2,-26.1 12.5,-25.2L11.8,-22.4Q12.3,-19 12.5,-18.3Q12.9,-17.8 12.9,-17.2L12.9,-12.6Q13.9,-12.1 14.3,-10.9Q14.6,-10.9 14.8,-9.7Q15,-9.7 17.7,-6.9Q19.9,-4.8 20.6,-4.8Q22.5,-4.2 22.7,-4.2Q23.4,-4.2 25,-4.5Q25.6,-4.2 26.5,-4.1Q29.6,-4.7 30.6,-5.7Q30.9,-7 32.5,-8.4Q32.5,-9.4 34.3,-10.8Q35.3,-12.6 35.3,-14.3Q35.9,-14.5 36.6,-18.2Q37,-18.2 37,-18.7Q37,-20.9 36.4,-23.1L36.4,-25.2Q36.5,-27.5 36.7,-27.5Q36.7,-27.7 35.9,-28.4Q35.9,-29.2 35.2,-29.8L35.2,-30.6Q35.2,-33.7 33.8,-34.4Q33.1,-36.1 28.7,-41L22.2,-41Q19.5,-40.8 19.5,-40.3Q19.5,-39.9 18.1,-39.6Q18.1,-39.4 17.1,-38.9Q17.1,-38.1 15.2,-37.5Z"></path><path transform="translate(384 200)" d="M17.7,-44.6Q17.7,-44.4 18.7,-43.5Q18.7,-42.7 19.2,-41Q19.2,-40.7 19,-40.7Q19.2,-37.7 19.2,-36.2L19.2,-33.6Q19.2,-33 19.3,-32.2Q18.4,-30.9 18.4,-30Q18.4,-29.6 19.2,-28.7Q19.2,-28 19.6,-25.7Q19,-24.9 19,-23.6Q19,-22.8 19.5,-21.5Q19.3,-18.8 19.3,-18.1Q19.3,-17.9 19.9,-17.2L19.9,-16.1Q19.9,-15.3 19.3,-14.7L19.3,-14.5Q19.3,-14.3 19.6,-12.9Q19.6,-11.8 19.5,-11.2Q19.6,-10.3 19.6,-9.3L19.6,-7.2Q19.6,-6.7 19.3,-5.1Q19.8,-3.6 19.8,-1.1Q18.9,-1.1 18.7,2.2Q18.5,2.4 17.4,5.1Q17.2,5.1 17.2,5.3L17.2,6.8Q11.5,13 10.2,13Q9.7,13 8.5,13.8L6.7,13.5L5.6,13.6Q3.2,13.6 1.8,11.3Q1.9,11 1.9,10.8Q1.5,9.2 1.5,8.1Q1.7,5 2.4,5Q3.1,3.7 5.3,3.7L5.5,3.7Q6.6,3.7 7.9,6.2L8.5,6.2Q10.8,3.7 10.8,2.9Q11,2.2 11,1Q11,0.1 10.7,-1.9Q11,-3.7 11,-5.1L10.5,-7.8Q10.7,-15.1 10.7,-19.3L10.7,-20.3Q10.7,-21.7 10.8,-24.2Q10.4,-25.2 10.4,-25.8L10.4,-29.5Q11,-30.2 11,-31Q11,-32.3 9.9,-33.9Q9.9,-34.6 8.3,-35.5Q3,-35.9 3,-36.5Q3,-36.7 3.1,-37Q3,-37.8 3,-38.2Q3,-39.4 5.2,-39.8L6.1,-39.8Q6.5,-39.8 7.4,-39.5Q8.6,-41.3 11.7,-41.3Q14.7,-44 15.2,-44Q17.3,-44.6 17.7,-44.6ZM16.6,-65.9Q19.9,-63 19.9,-62.5L19.7,-61.8L20,-59.5L19.1,-58Q19.1,-57.4 18.7,-57.1L18.8,-56.8L18.8,-56.4Q18.5,-55.7 18.1,-55.4Q17.8,-55.4 16.9,-55.6Q15.6,-55.3 15.6,-54.5L15.1,-54.5Q14.8,-54.5 14.8,-54.8L14.5,-54.6Q10.2,-55.8 10.2,-57.1Q8,-59.6 8,-61.8L8.1,-62.1L8,-62.3Q8.2,-63 10.9,-65.8L16,-65.8Q16.3,-65.8 16.6,-65.9Z"></path><path transform="translate(413 200)" d="M23,-44.9L23.8,-44.8L25.6,-44.8Q25.9,-44.8 27.5,-44.3Q29.9,-44.5 30.3,-44.5Q31.4,-42.7 34.2,-42.7Q37,-41.3 37,-39.7Q40.2,-36.5 41.2,-33.8Q41.4,-33.8 41.8,-31.5Q42.4,-30.5 43.3,-25.3L43.3,-24.5Q43.3,-23 39.9,-22.4L38.4,-22.9L32,-22.9Q30.2,-22.9 28.4,-22.7Q24.8,-23 24.5,-23Q23.7,-22.9 23.2,-22.9L20.5,-22.9Q19,-22.9 15.4,-23.2Q14.8,-22 14.8,-21.6L14.8,-19.2L16.3,-14.7L16.3,-14.6L16.2,-13.8Q16.8,-13.8 17.5,-11.7Q18.7,-10 20.7,-8.7Q20.7,-7.6 26,-6.4Q26,-6 27.4,-5.9L28.5,-5.9L29.3,-6.7L30.8,-6.7Q34.5,-7.6 36.3,-9.9Q36.6,-9.9 39.1,-12.8L39.4,-12.9Q39.5,-12.9 40.3,-12.8Q41.9,-13.1 42.7,-13.1Q43.9,-13.1 44.3,-9.5L44.3,-9.3Q40.9,-5 40.3,-5Q39.2,-4.8 36,-1.6L35.2,-1.7L31.2,0.3Q31.2,0.5 31.1,0.5L30.8,0.5Q28.6,0.2 28.4,0.2L27.6,0.2Q27,0.2 26.5,0.8Q21.5,0.5 17.7,-0.6Q16.9,-0.6 15.4,-1.7Q12.1,-3.4 11.4,-4L6.8,-9.3Q6.8,-10.4 5,-14.4Q4.3,-15.1 4.3,-16.2Q5.5,-17.7 5.5,-18.7L5.5,-19.8Q4.9,-20.5 4.9,-20.7Q4.9,-24.3 6.1,-27.1Q5.9,-27.9 5.9,-28.3Q6.2,-28.4 7.2,-31.4Q10.7,-37.8 11.1,-38.2Q15,-42 17.2,-42.4Q19.3,-43.5 19.8,-44L20.9,-44Q23,-44.5 23,-44.9ZM26.2,-39.3L23.8,-39.3Q23.5,-38.9 21.4,-37.9Q19.4,-36.9 18.9,-36.3Q18.9,-36.1 16.3,-33.5Q16.3,-33 15.7,-31.7L15.6,-29.3L16.9,-28.1Q20.1,-28.4 20.7,-28.4Q21.9,-28.4 24.4,-28.3Q28.9,-28.6 31.4,-28.6Q31.4,-28.9 33.6,-30.8Q33.6,-31.3 32.7,-33.3Q32.1,-34.8 32,-36Q28.1,-39.3 27.6,-39.3L27.6,-39.4L26.2,-39.3Z"></path><path transform="translate(462 200)" d="M26.3,-45.6L27.2,-45.6Q31.7,-43.8 32,-43.8L32,-43.7Q32.3,-43.8 32.4,-43.8Q32.7,-43.8 34.4,-42.8Q36.6,-42.2 37.3,-40.8Q39.3,-39 39.3,-38.9Q39.6,-38.9 39.7,-37.4L40.5,-35.8L40.5,-33.2L40.6,-32.5L39,-31.1L39.1,-30.4L39.1,-29.7Q38.2,-28.1 32.9,-27.9L32.7,-27.9Q31.2,-27.9 28.3,-31.4Q28.3,-31.9 27.7,-32.6Q27.7,-32.9 27.5,-32.9Q27.7,-36.2 28.3,-39.3Q27,-40 22.5,-40.7L22.2,-40.7Q21.6,-40.7 16.5,-37.6Q13.5,-34.9 13.5,-33.1Q12.6,-31.8 12.6,-31.6Q12.6,-31.4 12.8,-29.5L11.7,-24.9L11.9,-24Q11.9,-23.9 11.7,-23.9Q12,-23.6 12.2,-18.8Q12.7,-18.4 13.5,-14.2Q16.6,-8 18.7,-7.5Q19,-7.5 20.4,-6.1L21.3,-6.1L24.8,-5.4L26.6,-5.4Q30,-6.1 30,-6.7Q33.5,-7.7 35.3,-10.6Q37.9,-13.4 38.1,-13.4L38.5,-13.4Q38.7,-13.4 38.7,-13.3Q39,-13.4 39.1,-13.4Q40.5,-12.9 40.5,-11.9L40.5,-10L40.6,-9.3Q38.2,-6.9 34.4,-3.6Q34,-2.7 32.6,-1.5Q32.5,-1.5 31.7,-1.7Q28.6,-0.7 28.6,-0L28.4,-0Q28.1,-0 27.8,-0.2L25.6,0.7L23.8,0.4L22.8,0.6Q20.9,0.4 19,0.4L18.3,0.6Q18.3,0.3 17.4,-0.3L17.1,-0.2Q16.4,-0.8 16.3,-0.8L14,-0.8Q11.8,-3 10.7,-3.2Q5.8,-8.2 5.8,-8.8Q5.8,-9.3 5,-10.9Q5,-11.4 3.4,-16.3L2.9,-18.6Q2.9,-19.3 3.1,-20.1Q2.9,-21.4 2.9,-21.8Q3.1,-24.3 3.1,-25.6Q3.5,-25.6 3.7,-27.9Q5,-28.9 5,-31.9Q5.5,-32.1 6.8,-35.3Q11.2,-40 11.9,-40.1Q15.1,-41.9 16.2,-43.7L17.5,-43.7Q17.7,-43.7 19,-45L21.1,-45Q23.9,-44.5 24.4,-44.5L25.1,-45.1L25.4,-45.1L25.7,-45Q25.7,-45.2 26.3,-45.6Z"></path><path transform="translate(510 200)" d="M16.2,-58.5Q17.4,-58.5 18.3,-56.1Q18.6,-56.1 18.6,-55.8Q18.1,-46.9 18.1,-44.8Q18.7,-44.5 19.2,-44.5L21.4,-44.9L21.4,-44.8L21.7,-44.9L22.7,-44.9Q23,-44.9 26.8,-45.5L28.4,-45.5Q29.1,-45.2 30.3,-41.7Q30.6,-41.7 30.8,-41.2L30.8,-40Q29.9,-38.7 28.7,-38.7L28.4,-38.7Q24,-39.1 22.7,-39.1L22.1,-39L19.5,-39.7Q18.7,-39.7 17.8,-36.3L17.8,-35.6Q17.8,-33.7 17.7,-30.9Q18.4,-29.7 18.4,-29.3L18.4,-28.1Q18.4,-27.2 18,-24.4Q18,-22.3 18.9,-21L18.9,-20.1Q18.9,-19.8 18.4,-18.7Q18.4,-15.2 18,-13.1L18,-11.7Q18.5,-11.1 19.6,-8.9Q20.6,-8 21.3,-7.7Q22.6,-7.7 24.5,-8.9Q24.7,-8.9 27.8,-12L29.7,-12.3Q29.8,-12.1 30.5,-11.1L30.5,-10.7Q29.3,-9.3 29.3,-8.6Q28.9,-8.6 28.1,-5.8Q28,-5.8 27.8,-5.3Q28,-5.1 28,-4.7Q27.4,-3.9 26.2,-2.9L24.7,-3.1Q24.7,-2.5 22.1,-1.8Q19.9,-1.3 19.9,-0.9L19.2,-1L14.4,-1Q14.4,-1.5 11.4,-2.2Q11.1,-2.4 10.2,-4Q9.2,-4 8.7,-7.6Q8.6,-7.6 8.6,-8.2L8.6,-14.6Q8.6,-16 9,-18L8.7,-25.6Q8.7,-26.5 9.3,-34.4L9,-36.2Q9.3,-38 9.3,-38.4Q9,-39.3 8.1,-39.3Q5.6,-38.2 4.3,-38.2L3.5,-38.2Q1.7,-39.9 1.7,-42Q1.7,-42.8 3.1,-43.7Q3.2,-43.7 4.4,-45.1L5,-45.1Q7.1,-45.1 8.7,-47.5Q10.9,-49.3 11.9,-52.1Q11.9,-52.4 12.9,-54.2Q12.9,-54.5 12.8,-54.5L12.9,-55.5L12.9,-57.1Q12.9,-58.1 16.2,-58.5Z"></path><path transform="translate(543 200)" d=""></path><path transform="translate(594 200)" d="M51.3,-70.3Q54.1,-70.3 54.6,-67.9Q55.1,-67.3 55.4,-66.7Q55.3,-66.4 55.3,-66.2Q55.4,-66.2 56.4,-64.4Q57.5,-64.4 57.5,-64Q56.8,-63.7 56.7,-63.4L56.7,-62.3Q56.7,-61.4 58.4,-60.4Q58.2,-58.4 58.2,-57.4Q58.2,-57.3 58.5,-55.2L58.5,-54Q58.4,-52.8 56.7,-51.5L56.6,-51.5Q54,-51.5 52.4,-54.8Q48.5,-60.3 46.5,-60.3Q46.5,-60.9 44.7,-62L43.3,-62Q41.9,-63.5 35.9,-64.3L35,-64.3Q33.2,-64.3 30.5,-64.4Q28,-63.8 27.7,-63.8Q26.2,-64 25.2,-64Q21.5,-60 21.5,-55.6Q21.8,-54.5 21.8,-54.2Q21.8,-53.1 21.5,-49.1Q21.9,-48.1 21.9,-47.5L21.9,-46.1Q21.9,-45.7 21.8,-45.7L21.9,-44.9L21.9,-43.7Q21.9,-42.5 21.8,-40Q23.8,-39.3 24,-39.3L24.6,-39.3Q25.8,-39.3 26.5,-39.1Q28,-39.3 31.7,-39.4Q32.3,-39.3 32.8,-39.3Q38.1,-41.8 39.9,-43.9L39.8,-45.4Q40.5,-47.8 40.7,-47.8Q42.4,-49.2 42.7,-49.2Q43.9,-49.2 45.1,-47.3Q45.3,-44.9 45.7,-44Q45.7,-42.8 45.6,-41.2Q45.6,-32.5 46.6,-28.2L46.6,-27.9Q45.7,-26 45.6,-24.4Q45.2,-24.1 42.2,-23.9Q39.6,-26.4 39.6,-28.1Q39.2,-28.1 38.7,-30.8Q38.2,-30.8 36.6,-32.9L36.3,-32.9Q35.9,-32.9 32.9,-34.1Q26.7,-33.9 24.1,-33.9Q22.3,-33.9 22.3,-31.5L22.3,-27.1Q22.6,-23.7 22.6,-23.5L22.6,-21.4Q22.3,-18.9 22.3,-18.6L22.3,-15.1Q22.3,-11 23.5,-9.5L23.5,-8.2L26.2,-6L26.5,-6Q27.4,-6 28,-6.5L32.3,-6.5Q32.7,-6.5 33.5,-4L33.5,-2.8Q33.5,-2.6 31.3,-0.6L29.8,-0.6Q29.3,-0.6 28,-1Q21.3,-0.6 19.7,-0.6L18.3,-0.6L15.8,-1.3Q13.2,-1.2 10,-0.6L8.9,-0.7Q8.6,-0.7 7.8,-0.6Q6.3,-0.7 4.9,-0.7Q3.3,-0.7 2.8,-3.4Q3.4,-4.2 3.9,-5.5L4.5,-6L4.9,-6Q5.2,-6 7.8,-5.7L7.9,-5.7Q8.5,-6.2 10.3,-6.8Q11.2,-7.8 12.7,-11.3Q13.1,-11.3 13.1,-14.5Q12.4,-16.4 12.4,-17.5L13.1,-22.3Q12.9,-22.3 11.9,-23.3L12.1,-24.4L12.1,-24.7L11.3,-26.2L11.5,-27.7L11.5,-29.1Q11.5,-32.2 11.3,-36.4Q11.5,-37.3 11.5,-37.6Q11.2,-39 11.2,-39.4L11.3,-40.9L11.2,-43Q11.5,-45.2 11.5,-46Q10.9,-47 10.9,-47.8L10.9,-49.5Q10.9,-49.9 10.7,-50.1Q11.2,-50.9 11.2,-51.3L11.2,-51.6Q11.2,-51.8 10.9,-52.8L11.6,-57.6L11.6,-57.7Q11.4,-59.9 10.6,-61.2Q10.2,-62.8 9.2,-62.8Q6.8,-64 6.6,-64Q5.4,-63.7 5.2,-63.7Q2.9,-64.3 1.5,-65.2L1.6,-66.2L1.6,-67.3Q1.6,-68.2 4.3,-68.5Q4.3,-68.9 9.2,-69.1L9.6,-69.1Q10.2,-68.2 10.8,-68.2L11.7,-68.2Q12,-68.3 12.3,-68.9L14.1,-68.8L14.7,-68.8Q15.2,-68.8 15.9,-69.2Q18.8,-68.5 19.2,-68.5Q20.3,-68.6 21,-68.9L22.7,-68.8Q24.1,-69.1 24.4,-69.1Q24.9,-68.8 25.3,-68.8L26.2,-68.8L27.8,-69.4Q28.4,-69.2 28.4,-68.8L28.7,-68.8Q32,-69.2 34.2,-69.2L35,-69.2Q35.6,-69.2 36.1,-69.1Q36.7,-69.2 37.3,-69.2Q39.1,-69.2 41.2,-68.9Q43.1,-69.4 51.3,-70.3Z"></path><path transform="translate(658 200)" d="M23.8,-44.7Q28.1,-44.6 28.9,-44.3Q29.1,-44.5 29.4,-44.5L29.7,-44L30.7,-44.2Q32.3,-44.2 32.6,-42.5L33.9,-42.5Q34.6,-42.5 36.8,-40Q37.8,-39.2 39.5,-38.7Q42.5,-35.9 44.2,-30.8Q44.7,-30.8 44.9,-29.4Q45.9,-28.4 45.9,-28.1Q45.5,-26 45.5,-24.6Q45.9,-23.9 45.9,-23.2L45.9,-22.2Q45.3,-19.6 44.8,-19.6L44.8,-18.2Q44.8,-17.4 44.7,-15.9Q44.8,-15.7 44.8,-15.4Q44.6,-15.4 42.2,-12Q41.3,-11.7 41,-11.1Q41,-10.9 41.2,-10.9L41,-10.2L41.2,-9.2Q40.6,-9.2 38.5,-6.9Q37.7,-6.9 34.2,-3.7Q32.8,-3.2 32.1,-2.5Q30.3,-2.8 30,-2.8Q30,-2.5 27.9,-1.1Q27.9,-0.3 25.8,-0.3Q20,-1.4 18.7,-1.4Q18.7,-1.9 14.8,-2.5L14.5,-2.5L13.8,-2.4Q13.8,-3 11.5,-5.3Q10.1,-5.3 8.8,-8.3Q7,-9.9 6,-11.9Q5.3,-12.3 5.3,-12.5L5.3,-13.3L5.4,-14.3Q4.7,-14.3 4.1,-17.2Q3.9,-17.2 3.9,-17.5L3.9,-17.6Q3.3,-24.8 3.3,-26.1Q4.3,-30.1 5.1,-30.8Q4.8,-30.8 4.7,-31.7Q5.3,-31.8 6.8,-35.2Q9.1,-38.5 10.6,-39.7Q10.8,-39.7 12.1,-41.7Q13.1,-42.1 14.9,-42.4Q14.9,-43 16.7,-43.2Q16.7,-43.6 18.1,-43.8Q18.1,-44 18.7,-44.3L20.1,-44.3Q21.4,-44.3 23.8,-44.7ZM15.2,-37.5L15.2,-36.6Q14.3,-36.1 13.4,-33.3Q13.2,-30.6 12.5,-27.5Q12.2,-27.5 12.2,-27.3L12.2,-26.8Q12.2,-26.1 12.5,-25.2L11.8,-22.4Q12.3,-19 12.5,-18.3Q12.9,-17.8 12.9,-17.2L12.9,-12.6Q13.9,-12.1 14.3,-10.9Q14.6,-10.9 14.8,-9.7Q15,-9.7 17.7,-6.9Q19.9,-4.8 20.6,-4.8Q22.5,-4.2 22.7,-4.2Q23.4,-4.2 25,-4.5Q25.6,-4.2 26.5,-4.1Q29.6,-4.7 30.6,-5.7Q30.9,-7 32.5,-8.4Q32.5,-9.4 34.3,-10.8Q35.3,-12.6 35.3,-14.3Q35.9,-14.5 36.6,-18.2Q37,-18.2 37,-18.7Q37,-20.9 36.4,-23.1L36.4,-25.2Q36.5,-27.5 36.7,-27.5Q36.7,-27.7 35.9,-28.4Q35.9,-29.2 35.2,-29.8L35.2,-30.6Q35.2,-33.7 33.8,-34.4Q33.1,-36.1 28.7,-41L22.2,-41Q19.5,-40.8 19.5,-40.3Q19.5,-39.9 18.1,-39.6Q18.1,-39.4 17.1,-38.9Q17.1,-38.1 15.2,-37.5Z"></path><path transform="translate(709 200)" d="M31.2,-46.8L32,-46.6L32.4,-46.6Q34.2,-46.6 36.4,-46Q36.7,-46.2 37,-46.2Q37.1,-45.6 39.6,-43.3Q39.3,-42.4 39.3,-42L39.3,-40.5Q39.3,-40.3 39.6,-38.1Q39.4,-36.8 36.2,-35.4L36.1,-35.4Q35.4,-35.4 34.6,-35.5Q34,-35.4 33.6,-35.4Q33.3,-35.4 29.7,-37.8L28.3,-37.9Q24.1,-36.9 24.1,-35.9Q24.1,-35.7 22.1,-33.1Q21.3,-31.7 21.3,-31.3L21.3,-30.7Q21.7,-27.6 21.55,-23.3Q21.4,-19 21.7,-18.6Q21.7,-17.2 21.6,-16.8Q21.7,-15.6 21.7,-15.4L21.6,-13.6Q21.6,-13.5 22.3,-12.6L22.3,-10Q22.9,-9.5 23,-8Q24,-7.3 25.9,-6.8L26.3,-6.8Q26.7,-6.8 26.9,-6.9Q27.2,-6.8 27.5,-6.8Q30,-6.7 30.3,-6.7L31.3,-5.5L31.3,-2.3Q31.3,-1.8 29.4,-1.6Q26.7,-2.3 25.6,-2.3L24.8,-2.3Q23.2,-1.5 21.8,-1.5L21,-1.5L20.1,-1.7Q19.8,-1.5 19.3,-1.5Q18.9,-1.5 18.9,-1.7L18.1,-1.5Q16.8,-1.5 15.1,-1.7Q12.4,-0.8 8.3,-1Q6.4,-1.8 6.4,-2.2Q5.3,-2.8 5.3,-3.5L5.5,-4.3Q5.3,-4.5 5.3,-4.9L8.3,-6.5Q8.4,-6.7 11.7,-8Q13.1,-9.2 13.1,-10.5L13.4,-10.8Q13.2,-13 13.2,-14.1L13.2,-14.7Q13.2,-17.3 14.3,-24.9Q13.4,-25.1 13.4,-25.9Q13.4,-26.2 12.9,-27.8Q12.9,-28.9 12.8,-32.2Q13.2,-32.9 13.2,-33.6L13.2,-34.2L9.9,-36.3L7.6,-36.3Q6.8,-36.3 6.1,-36.2Q4,-36.2 2.3,-38.1L2.3,-39.8Q4.9,-42.4 4.9,-42.6Q7.2,-42.1 7.9,-42.1Q8.8,-42.7 12,-43.8L12.3,-43.8L13.8,-43.6Q13.8,-44.7 18,-44.7Q18,-44.8 18.7,-44.8Q19.3,-44.8 20.4,-43.5Q20.4,-42.1 19.6,-38.7Q19.6,-37.5 20.8,-37.5Q21.2,-37.5 21.7,-39Q25.5,-43.2 26.9,-43.8Q27.3,-44.8 30.8,-46Q30.8,-46.3 31.2,-46.8Z"></path><path transform="translate(751 200)" d=""></path><path transform="translate(802 200)" d="M95,-69.7L95.5,-69.7Q96,-69.2 98.4,-68.1Q98.8,-66.1 98.8,-66Q98.8,-64.9 96.1,-64.3L94.7,-64.3Q93.3,-64.3 88.3,-58.9Q88.1,-58.9 87.6,-58.3L87.7,-57.5L87.7,-56.4Q85.3,-48.6 82.7,-42.3Q82.7,-40 81.8,-38.4L81.6,-37Q81.8,-36.7 81.8,-36.4Q81.4,-36.4 80.1,-35.2L80.3,-33.6L80.3,-33L79.8,-32.3L80,-31.5Q78.1,-30.5 78.1,-27.4Q77.7,-24.4 76.2,-21Q76.2,-20.5 74.3,-16.3Q73.7,-13.1 73.7,-12.4Q73.9,-12.1 73.9,-11.8Q71.6,-10.9 71.6,-7.1L70.2,-1.3Q69.2,0.1 68.4,0.1L67.8,0.1Q66.9,0.1 65.8,-1.6Q65.7,-2.6 65.7,-3.6L65.7,-3.7Q64.6,-5.2 64.6,-6.9Q64.8,-7.5 64.8,-8.1L64.8,-8.3Q64.2,-8.8 63.7,-10.1Q63.3,-10.1 62.8,-13.7Q62.4,-13.8 61.7,-16.8Q61.2,-18.1 60.8,-18.1L61,-19.2L61,-19.5L59.9,-23.5L59.9,-24.1Q60.2,-24.5 60.2,-24.5L60.2,-24.8Q58.8,-24.8 58.8,-27.3Q58.8,-27.4 59,-28.2Q58.4,-28.2 56.9,-32.1Q55.5,-36.2 55.5,-37.4Q55.1,-37.4 54,-41.4Q54,-42.1 52.9,-44.6Q52.9,-45.1 52.2,-45.7L52.3,-46.4L52.3,-47.5Q51.8,-48.4 51.6,-48.4L51.4,-48.4Q50.8,-48.1 50.8,-47.3L50.9,-46.3Q50.1,-46.1 47.6,-40.6Q47,-36.2 45.9,-34.7Q45.2,-33.5 44.9,-31.1Q44.2,-30.1 43.5,-27.1Q42.8,-27.1 42.3,-22.4Q41.9,-22.1 41.1,-20Q40.6,-17.4 38.6,-13.1Q38.6,-12.7 37.6,-11.9Q37.9,-10.9 37.9,-10.1L37.9,-9.6Q37.9,-8.9 36.5,-7.8L36.8,-4.9Q34.3,0.5 34.1,0.7L33.9,0.7Q31.6,0.7 31.6,-0.2Q31.6,-0.6 30,-4.5Q30,-6 29.2,-6.9L29.2,-8.1Q29.2,-9.1 28.1,-10.9L28.1,-12.1Q27.5,-12.6 27.2,-14.2Q27.4,-16.8 27.4,-17.2Q27.4,-17.4 25.9,-19.1L26,-20.6Q25.4,-20.6 25.1,-21.9Q24.7,-21.9 24.5,-23.6Q24.1,-23.6 23.1,-27.3Q22.8,-27.3 22.8,-27.6Q22.8,-32.1 21.8,-33.3Q19.9,-37.2 17.8,-45L17.2,-45.8L17.2,-47.8L15.7,-51.7Q15.5,-51.7 15.2,-52.2L15.2,-52.6Q15.2,-54.8 13.4,-59Q11.8,-62.8 10.2,-63.4Q10.2,-63.7 9.6,-63.9Q8.3,-63.7 7.6,-63.7Q7.3,-63.7 5.5,-64Q5.2,-63.9 4.9,-63.9Q3.8,-64.9 3.8,-65.6L3.8,-66.3Q4.2,-67.3 6.6,-67.8L6.7,-67.8Q15.8,-67.4 20.1,-67.4Q21.2,-67.4 28.3,-68.1Q28.7,-68.1 29.5,-68L30.4,-68.1Q31,-68.1 32.6,-66.8L32.6,-66.5Q32.6,-66.3 32.4,-66.3L32.6,-66L32.6,-65.7Q31.5,-64.5 30.7,-64.5L29.5,-64.5Q28.9,-64.5 27.8,-64.7Q25.3,-63.6 24.2,-61.8Q24.2,-61.5 23.1,-60.5L23.1,-58.4Q24.2,-56.3 24.2,-54.3Q25,-51.8 26.3,-48.4Q26.3,-45 28.9,-40.6Q28.9,-38.2 29.7,-38.2L29.7,-38.1Q29.7,-38 29.5,-37.4Q30,-36.7 30,-36.2L30,-35.3L29.1,-34.1L29.1,-33.8Q31.5,-31.9 31.5,-31.4Q32.4,-28.8 33.6,-24.2L34.4,-22.6L34.4,-21.9Q34.4,-21.6 34.2,-21.3Q35.5,-19.2 37.1,-19.2Q37.7,-19.4 37.7,-19.7L37.7,-21.3Q39.1,-24.5 39.5,-26.5Q40.6,-29.4 41.5,-33L41.4,-34Q41.6,-34 43,-35.3L42.9,-36.2Q42.9,-38.1 44,-39.6Q44,-40.1 45,-43.2Q45,-44.1 47.1,-49.5Q47.9,-52.8 48.5,-52.8Q48.5,-53.7 49.3,-54.2L49.4,-54.2Q49.4,-57.1 46.8,-61Q44.1,-63.4 44.1,-63.7L43.3,-63.7Q41,-64.5 38.5,-64.7L37.9,-65.4L37.9,-66.2Q37.9,-66.3 38,-66.3L37.9,-66.6L37.9,-67.5Q38,-68 39.1,-68L40.9,-68Q42,-68 42,-68.1L43.8,-68L63.1,-68L64,-67.8Q64.2,-68 64.9,-68Q65.6,-67.7 65.7,-67.4L65.7,-66.8Q65.7,-66.4 65.5,-66.2Q65.8,-65.7 65.8,-65.4L64.8,-64.8Q63.9,-65 63.6,-65Q58.2,-64.3 58.2,-63.7Q56.7,-62.2 56.7,-61.5Q56.7,-59.3 57.8,-58.1Q57.8,-57.7 58.5,-56.9L58.4,-55.1Q58.4,-54.8 59.3,-53.7Q59.3,-53.2 60.1,-52Q60.1,-51.7 60.8,-50.4Q60.8,-45.8 62.3,-43.5Q62.3,-42.8 63.4,-40.2Q63.4,-37.9 65.1,-36.2Q65.1,-35.8 65.4,-35.8L65.2,-35L65.2,-33.6Q66.6,-31.7 66.6,-29.7Q67.1,-27.4 68.1,-25Q68.1,-24.6 68.9,-23.6Q68.9,-23.1 69,-19.8Q68.9,-18.5 68.4,-17.4Q68.4,-16.6 70.2,-16.6Q71.3,-17.1 71.3,-18.6L72.5,-23.2Q72.5,-24.5 75.4,-30.3L76.9,-31.5Q76.6,-33.8 76.6,-34.3Q77.8,-35.7 77.8,-37.9Q78.9,-41.3 79.2,-43.8Q79.7,-43.8 80.3,-46.6Q81,-47.8 82.1,-52.9Q82.9,-53 84.4,-58.6Q84.2,-59.6 84.2,-60.5Q85.1,-60.5 85.1,-62.7Q84.8,-62.7 83.8,-64L83.2,-64Q81.7,-64 78.8,-65.3Q78.1,-65.3 77.1,-65.1Q75.9,-65.1 75.4,-66.2L75.4,-66.6Q75.4,-67.8 80.1,-68.4L88.2,-68.4Q93.5,-68.4 95,-69.7ZM54.3,-63.4L54.6,-63.3L55.2,-63.3Q56.6,-63.3 57.2,-64.5L57.2,-64.8L56.4,-65L55,-65Q54.8,-65 54.3,-63.4Z"></path><path transform="translate(894 200)" d="M23,-44.9L23.8,-44.8L25.6,-44.8Q25.9,-44.8 27.5,-44.3Q29.9,-44.5 30.3,-44.5Q31.4,-42.7 34.2,-42.7Q37,-41.3 37,-39.7Q40.2,-36.5 41.2,-33.8Q41.4,-33.8 41.8,-31.5Q42.4,-30.5 43.3,-25.3L43.3,-24.5Q43.3,-23 39.9,-22.4L38.4,-22.9L32,-22.9Q30.2,-22.9 28.4,-22.7Q24.8,-23 24.5,-23Q23.7,-22.9 23.2,-22.9L20.5,-22.9Q19,-22.9 15.4,-23.2Q14.8,-22 14.8,-21.6L14.8,-19.2L16.3,-14.7L16.3,-14.6L16.2,-13.8Q16.8,-13.8 17.5,-11.7Q18.7,-10 20.7,-8.7Q20.7,-7.6 26,-6.4Q26,-6 27.4,-5.9L28.5,-5.9L29.3,-6.7L30.8,-6.7Q34.5,-7.6 36.3,-9.9Q36.6,-9.9 39.1,-12.8L39.4,-12.9Q39.5,-12.9 40.3,-12.8Q41.9,-13.1 42.7,-13.1Q43.9,-13.1 44.3,-9.5L44.3,-9.3Q40.9,-5 40.3,-5Q39.2,-4.8 36,-1.6L35.2,-1.7L31.2,0.3Q31.2,0.5 31.1,0.5L30.8,0.5Q28.6,0.2 28.4,0.2L27.6,0.2Q27,0.2 26.5,0.8Q21.5,0.5 17.7,-0.6Q16.9,-0.6 15.4,-1.7Q12.1,-3.4 11.4,-4L6.8,-9.3Q6.8,-10.4 5,-14.4Q4.3,-15.1 4.3,-16.2Q5.5,-17.7 5.5,-18.7L5.5,-19.8Q4.9,-20.5 4.9,-20.7Q4.9,-24.3 6.1,-27.1Q5.9,-27.9 5.9,-28.3Q6.2,-28.4 7.2,-31.4Q10.7,-37.8 11.1,-38.2Q15,-42 17.2,-42.4Q19.3,-43.5 19.8,-44L20.9,-44Q23,-44.5 23,-44.9ZM26.2,-39.3L23.8,-39.3Q23.5,-38.9 21.4,-37.9Q19.4,-36.9 18.9,-36.3Q18.9,-36.1 16.3,-33.5Q16.3,-33 15.7,-31.7L15.6,-29.3L16.9,-28.1Q20.1,-28.4 20.7,-28.4Q21.9,-28.4 24.4,-28.3Q28.9,-28.6 31.4,-28.6Q31.4,-28.9 33.6,-30.8Q33.6,-31.3 32.7,-33.3Q32.1,-34.8 32,-36Q28.1,-39.3 27.6,-39.3L27.6,-39.4L26.2,-39.3Z"></path><path transform="translate(943 200)" d="M12.6,-73.2L13.2,-73.2Q14.9,-72.9 14.9,-71.6Q14.7,-70.3 14.7,-69.9Q14.7,-69.1 15.3,-65.3Q15.2,-63.8 15.2,-62.8L15.3,-61.8L15.2,-61Q15.3,-59.4 15.3,-58Q14.4,-54 14.4,-53.9L14.4,-53.7Q15,-52.4 15,-48.2L15,-46.9Q15,-45.8 14.7,-42.3Q14.9,-40.6 15.5,-40.6Q23.2,-44.5 23.6,-44.5Q24.2,-44.6 25.3,-44.6L25.6,-44.6Q25.9,-44.6 26.2,-44.5Q27.6,-44.9 28.3,-44.9Q31.8,-43.7 32.1,-43.3Q32.1,-43.1 32.3,-43.1Q32.8,-43.6 34.4,-43.6L34.5,-43.6Q35,-42.9 36.3,-42.5Q37.8,-40.8 41.5,-38.2Q42.5,-35.7 42.9,-35.4Q44.5,-34.4 44.5,-33.3Q45,-33.3 45.5,-28.4Q45.8,-28.4 45.8,-26.9Q45.8,-26.2 45.4,-24.4Q45.7,-23.3 46,-16.6Q46.1,-16.6 46.1,-16.5Q44.3,-13.1 43.7,-11Q43.2,-9.6 41.5,-8.2Q39.2,-4.1 35.3,-2.8Q32.9,-1.6 32.9,-1.3Q32.7,-1.3 32.4,-1.2Q31.6,-1.3 31.1,-1.3L28.6,-0.1L28.3,-0.1Q25.1,-0.1 22.5,-0.7L21.6,-0.6Q20.5,-1.3 14.7,-4.4Q14.7,-4.6 13.2,-4.7Q12.4,-2.1 9.8,-0.6L9.3,-0Q6.7,-0.1 6.7,-1.5Q7.6,-8.9 7.6,-9.5Q7.4,-12.2 7.4,-12.9L7.6,-12.9L7.4,-13.2L7.4,-14.4Q7.4,-15.3 7.7,-17.8Q7.6,-18.9 7.4,-19.2Q7.4,-19.7 7.6,-19.9Q7.4,-23.3 7.4,-24.1Q7.6,-30.3 7.6,-30.9Q6.8,-32.3 6.8,-32.6Q7,-33.8 7,-34.7L7,-36.4Q7,-36.8 6.8,-37Q7.3,-39.2 7.3,-40.2L7.3,-43.1Q7.3,-43.4 7,-45.5L7,-51.2Q7,-54.8 6.4,-56.1Q6.4,-56.9 6.7,-58.3Q5.9,-64.4 3.5,-64.4Q2.5,-65.5 1.8,-65.6Q1.5,-65.5 0.4,-65.3L-0.8,-66.4Q-0.4,-69.9 1.2,-69.9Q3.3,-70.7 8.2,-71.7Q8.3,-71.9 12.6,-73.2ZM14.9,-33.9Q14.9,-33.6 15,-30.6Q15,-29.8 14.9,-25.7Q15.2,-24.2 15.2,-23.8Q14.6,-22 14.6,-21.6Q14.7,-19.3 14.7,-17.8L14.7,-16.3Q14.7,-15.8 15.6,-12.5Q15.6,-11.5 16.3,-10.5Q16.3,-9.3 20.1,-7.7Q20.1,-7.3 22.9,-7.1Q24.8,-6 24.8,-5.5Q31.7,-5.5 34.4,-9Q35.1,-10.6 35.9,-12.9Q36,-12.9 36,-13.1L36,-14Q36.6,-17.9 36.6,-18.4Q36.3,-19.8 36.3,-20.4Q36.9,-23.5 36.9,-24.2L36,-31.4Q34.6,-35.1 34.2,-35.4Q31,-38.2 30.5,-38.2Q29.8,-38.2 28.1,-39Q28,-39 24.7,-39.3L24.1,-39.3Q22.6,-38.7 19.2,-37.9Q14.9,-34.3 14.9,-33.9Z"></path></svg>